<svg width="302" height="222" viewBox="0 0 302 222" fill="none" xmlns="http://www.w3.org/2000/svg">
<mask id="path-1-inside-1_63_470" fill="white">
<path d="M176.823 0H125.177C120.117 0 116 4.11836 116 9.1795V60.8183C116 65.8805 120.117 70 125.177 70H176.823C181.883 70 186 65.8816 186 60.8183V9.1795C186 4.11836 181.884 0 176.823 0ZM169.942 14.8285C170.417 14.8282 170.887 14.9216 171.326 15.1034C171.765 15.2851 172.163 15.5516 172.499 15.8876C172.834 16.2236 173.1 16.6225 173.282 17.0615C173.463 17.5005 173.556 17.9709 173.555 18.4458C173.556 18.9205 173.463 19.3907 173.281 19.8294C173.1 20.2682 172.834 20.6668 172.498 21.0025C172.163 21.3382 171.764 21.6044 171.325 21.7859C170.887 21.9673 170.417 22.0604 169.942 22.0598C168.983 22.0598 168.063 21.6789 167.385 21.0008C166.707 20.3227 166.326 19.4031 166.326 18.4442C166.326 17.4852 166.707 16.5656 167.385 15.8875C168.063 15.2094 168.983 14.8285 169.942 14.8285ZM171.881 23.4696C171.877 23.8772 171.842 26.1276 171.355 26.8078C170.818 27.5517 169.941 27.4385 169.941 27.4385C169.941 27.4385 168.952 27.4726 168.561 26.8649C168.174 26.2705 167.986 25.0903 167.999 23.4696H171.881ZM126.752 7.56754H151.179V24.4574L149.752 23.0323V8.996H128.172V36.318H149.752V27.7286L151.179 29.1549V37.7487H126.752V7.56754ZM144.003 33.1512C144.08 33.4359 144.042 33.7392 143.898 33.9963C143.753 34.2533 143.514 34.4436 143.231 34.5264C142.948 34.6091 142.644 34.5778 142.384 34.439C142.124 34.3003 141.929 34.0652 141.84 33.7842L139.218 24.7871H138.289L135.667 33.7842C135.582 34.0709 135.388 34.3124 135.125 34.4558C134.863 34.5992 134.555 34.6327 134.268 34.5489C134.126 34.5075 133.993 34.4385 133.878 34.3458C133.762 34.2531 133.666 34.1386 133.595 34.0088C133.524 33.8789 133.48 33.7364 133.464 33.5892C133.448 33.4421 133.461 33.2932 133.503 33.1512L136.158 24.0399V18.1964L135.485 18.1986L135.481 18.1964L133.973 23.3311C133.911 23.5399 133.769 23.7156 133.578 23.82C133.387 23.9244 133.163 23.9489 132.954 23.8882C132.85 23.858 132.753 23.8075 132.669 23.7399C132.585 23.6722 132.516 23.5886 132.464 23.4938C132.412 23.3991 132.38 23.2951 132.368 23.1878C132.357 23.0805 132.367 22.972 132.398 22.8685L133.978 17.4986C134.606 15.4109 136.371 15.4735 136.371 15.4735H141.136C141.136 15.4735 142.899 15.4109 143.528 17.4986L145.11 22.8685C145.165 23.0756 145.137 23.296 145.031 23.4826C144.926 23.6692 144.752 23.8074 144.547 23.8678C144.341 23.9281 144.12 23.9057 143.931 23.8055C143.741 23.7053 143.599 23.5351 143.533 23.3311L142.023 18.1964L142.019 18.1986L141.346 18.1964V24.0432L144.002 33.1501L144.003 33.1512ZM136.829 12.9418C136.829 11.8804 137.692 11.0167 138.753 11.0167C139.252 11.0336 139.726 11.2438 140.073 11.603C140.42 11.9622 140.614 12.4422 140.614 12.9418C140.614 13.4414 140.42 13.9215 140.073 14.2807C139.726 14.6399 139.252 14.8501 138.753 14.867C138.243 14.8664 137.754 14.6633 137.393 14.3024C137.032 13.9415 136.829 13.4521 136.829 12.9418ZM154.84 45.9667C154.84 47.9732 153.2 49.5994 151.179 49.5994C149.155 49.5994 147.515 47.9721 147.515 45.9667C147.515 43.9614 149.155 42.3329 151.179 42.3329C153.201 42.3329 154.84 43.9603 154.84 45.9667ZM136.034 45.9986C136.034 46.9588 135.652 47.8797 134.973 48.5587C134.294 49.2377 133.373 49.6192 132.413 49.6192C131.453 49.6192 130.532 49.2377 129.853 48.5587C129.174 47.8797 128.792 46.9588 128.792 45.9986C128.792 45.0383 129.174 44.1174 129.853 43.4384C130.532 42.7594 131.453 42.378 132.413 42.378C133.373 42.378 134.294 42.7594 134.973 43.4384C135.652 44.1174 136.034 45.0383 136.034 45.9986ZM139.633 62.7533H125.118V55.6572C125.118 53.098 127.22 51.0191 129.782 51.0191H134.784C137.346 51.0191 139.634 53.0991 139.634 55.6572L139.633 62.7533ZM142.356 62.7533L145.239 54.9001C146.394 50.8883 149.757 51.0114 149.757 51.0114H152.61C152.61 51.0114 155.97 50.8883 157.128 54.9001L160.011 62.7533H142.357H142.356ZM160.384 33.0908H155.371C155.17 33.0912 154.972 33.0522 154.787 32.9758C154.602 32.8994 154.434 32.7873 154.292 32.6458C154.151 32.5043 154.038 32.3362 153.962 32.1513C153.885 31.9663 153.846 31.768 153.846 31.5679C153.846 31.2877 154.053 30.8448 154.186 30.6262L148.066 24.5058C148.008 24.4481 147.962 24.3797 147.931 24.3044C147.9 24.2291 147.884 24.1484 147.885 24.0669C147.885 23.9854 147.901 23.9048 147.932 23.8296C147.964 23.7545 148.01 23.6863 148.068 23.6289C148.125 23.5709 148.193 23.5249 148.268 23.4935C148.344 23.4621 148.424 23.4459 148.506 23.4459C148.587 23.4459 148.668 23.4621 148.743 23.4935C148.818 23.5249 148.886 23.5709 148.944 23.6289L155.375 30.0614L159.928 30.0636L162.93 25.5343C163.354 24.8992 163.928 24.3786 164.601 24.0186C165.274 23.6586 166.026 23.4704 166.789 23.4707H167.019C167.017 23.9278 167.053 26.721 167.998 27.7066C168.707 28.4165 169.456 28.3549 169.456 28.3549V32.07C169.187 32.1815 168.964 32.3831 168.827 32.6403C168.689 32.8976 168.646 33.1946 168.703 33.4806C168.76 33.7666 168.915 34.0239 169.14 34.2085C169.366 34.3932 169.649 34.4937 169.941 34.4929C170.232 34.4919 170.513 34.3904 170.738 34.2055C170.962 34.0207 171.116 33.7639 171.173 33.4787C171.229 33.1935 171.186 32.8974 171.049 32.6407C170.913 32.3839 170.691 32.1823 170.423 32.07V28.3714C170.423 28.3714 171.282 28.4483 172.012 27.5627C172.711 26.6946 172.87 24.7134 172.865 23.5201C175.214 23.5201 177.201 25.8079 177.201 28.3516V38.0728H164.575V28.5934C164.239 29.0977 163.1 30.7844 162.022 32.3854C161.703 32.8645 160.955 33.0941 160.386 33.0941L160.384 33.0908ZM173.579 45.6887C173.578 46.6491 173.197 47.57 172.518 48.2494C171.839 48.9288 170.919 49.3112 169.958 49.3126C168.997 49.3126 168.076 48.9309 167.396 48.2514C166.717 47.5719 166.335 46.6502 166.335 45.6893C166.335 44.7283 166.717 43.8067 167.396 43.1272C168.076 42.4477 168.997 42.0659 169.958 42.0659C170.434 42.0661 170.905 42.1599 171.344 42.342C171.784 42.5242 172.183 42.7911 172.519 43.1275C172.855 43.4639 173.122 43.8632 173.304 44.3027C173.486 44.7421 173.579 45.2131 173.579 45.6887ZM177.248 62.7533H162.737V55.6572C162.737 53.098 165.021 51.0191 167.587 51.0191H172.582C175.146 51.0191 177.248 53.098 177.248 55.6572V62.7533Z"/>
</mask>
<path d="M176.823 0H125.177C120.117 0 116 4.11836 116 9.1795V60.8183C116 65.8805 120.117 70 125.177 70H176.823C181.883 70 186 65.8816 186 60.8183V9.1795C186 4.11836 181.884 0 176.823 0ZM169.942 14.8285C170.417 14.8282 170.887 14.9216 171.326 15.1034C171.765 15.2851 172.163 15.5516 172.499 15.8876C172.834 16.2236 173.1 16.6225 173.282 17.0615C173.463 17.5005 173.556 17.9709 173.555 18.4458C173.556 18.9205 173.463 19.3907 173.281 19.8294C173.1 20.2682 172.834 20.6668 172.498 21.0025C172.163 21.3382 171.764 21.6044 171.325 21.7859C170.887 21.9673 170.417 22.0604 169.942 22.0598C168.983 22.0598 168.063 21.6789 167.385 21.0008C166.707 20.3227 166.326 19.4031 166.326 18.4442C166.326 17.4852 166.707 16.5656 167.385 15.8875C168.063 15.2094 168.983 14.8285 169.942 14.8285ZM171.881 23.4696C171.877 23.8772 171.842 26.1276 171.355 26.8078C170.818 27.5517 169.941 27.4385 169.941 27.4385C169.941 27.4385 168.952 27.4726 168.561 26.8649C168.174 26.2705 167.986 25.0903 167.999 23.4696H171.881ZM126.752 7.56754H151.179V24.4574L149.752 23.0323V8.996H128.172V36.318H149.752V27.7286L151.179 29.1549V37.7487H126.752V7.56754ZM144.003 33.1512C144.08 33.4359 144.042 33.7392 143.898 33.9963C143.753 34.2533 143.514 34.4436 143.231 34.5264C142.948 34.6091 142.644 34.5778 142.384 34.439C142.124 34.3003 141.929 34.0652 141.84 33.7842L139.218 24.7871H138.289L135.667 33.7842C135.582 34.0709 135.388 34.3124 135.125 34.4558C134.863 34.5992 134.555 34.6327 134.268 34.5489C134.126 34.5075 133.993 34.4385 133.878 34.3458C133.762 34.2531 133.666 34.1386 133.595 34.0088C133.524 33.8789 133.48 33.7364 133.464 33.5892C133.448 33.4421 133.461 33.2932 133.503 33.1512L136.158 24.0399V18.1964L135.485 18.1986L135.481 18.1964L133.973 23.3311C133.911 23.5399 133.769 23.7156 133.578 23.82C133.387 23.9244 133.163 23.9489 132.954 23.8882C132.85 23.858 132.753 23.8075 132.669 23.7399C132.585 23.6722 132.516 23.5886 132.464 23.4938C132.412 23.3991 132.38 23.2951 132.368 23.1878C132.357 23.0805 132.367 22.972 132.398 22.8685L133.978 17.4986C134.606 15.4109 136.371 15.4735 136.371 15.4735H141.136C141.136 15.4735 142.899 15.4109 143.528 17.4986L145.11 22.8685C145.165 23.0756 145.137 23.296 145.031 23.4826C144.926 23.6692 144.752 23.8074 144.547 23.8678C144.341 23.9281 144.12 23.9057 143.931 23.8055C143.741 23.7053 143.599 23.5351 143.533 23.3311L142.023 18.1964L142.019 18.1986L141.346 18.1964V24.0432L144.002 33.1501L144.003 33.1512ZM136.829 12.9418C136.829 11.8804 137.692 11.0167 138.753 11.0167C139.252 11.0336 139.726 11.2438 140.073 11.603C140.42 11.9622 140.614 12.4422 140.614 12.9418C140.614 13.4414 140.42 13.9215 140.073 14.2807C139.726 14.6399 139.252 14.8501 138.753 14.867C138.243 14.8664 137.754 14.6633 137.393 14.3024C137.032 13.9415 136.829 13.4521 136.829 12.9418ZM154.84 45.9667C154.84 47.9732 153.2 49.5994 151.179 49.5994C149.155 49.5994 147.515 47.9721 147.515 45.9667C147.515 43.9614 149.155 42.3329 151.179 42.3329C153.201 42.3329 154.84 43.9603 154.84 45.9667ZM136.034 45.9986C136.034 46.9588 135.652 47.8797 134.973 48.5587C134.294 49.2377 133.373 49.6192 132.413 49.6192C131.453 49.6192 130.532 49.2377 129.853 48.5587C129.174 47.8797 128.792 46.9588 128.792 45.9986C128.792 45.0383 129.174 44.1174 129.853 43.4384C130.532 42.7594 131.453 42.378 132.413 42.378C133.373 42.378 134.294 42.7594 134.973 43.4384C135.652 44.1174 136.034 45.0383 136.034 45.9986ZM139.633 62.7533H125.118V55.6572C125.118 53.098 127.22 51.0191 129.782 51.0191H134.784C137.346 51.0191 139.634 53.0991 139.634 55.6572L139.633 62.7533ZM142.356 62.7533L145.239 54.9001C146.394 50.8883 149.757 51.0114 149.757 51.0114H152.61C152.61 51.0114 155.97 50.8883 157.128 54.9001L160.011 62.7533H142.357H142.356ZM160.384 33.0908H155.371C155.17 33.0912 154.972 33.0522 154.787 32.9758C154.602 32.8994 154.434 32.7873 154.292 32.6458C154.151 32.5043 154.038 32.3362 153.962 32.1513C153.885 31.9663 153.846 31.768 153.846 31.5679C153.846 31.2877 154.053 30.8448 154.186 30.6262L148.066 24.5058C148.008 24.4481 147.962 24.3797 147.931 24.3044C147.9 24.2291 147.884 24.1484 147.885 24.0669C147.885 23.9854 147.901 23.9048 147.932 23.8296C147.964 23.7545 148.01 23.6863 148.068 23.6289C148.125 23.5709 148.193 23.5249 148.268 23.4935C148.344 23.4621 148.424 23.4459 148.506 23.4459C148.587 23.4459 148.668 23.4621 148.743 23.4935C148.818 23.5249 148.886 23.5709 148.944 23.6289L155.375 30.0614L159.928 30.0636L162.93 25.5343C163.354 24.8992 163.928 24.3786 164.601 24.0186C165.274 23.6586 166.026 23.4704 166.789 23.4707H167.019C167.017 23.9278 167.053 26.721 167.998 27.7066C168.707 28.4165 169.456 28.3549 169.456 28.3549V32.07C169.187 32.1815 168.964 32.3831 168.827 32.6403C168.689 32.8976 168.646 33.1946 168.703 33.4806C168.76 33.7666 168.915 34.0239 169.14 34.2085C169.366 34.3932 169.649 34.4937 169.941 34.4929C170.232 34.4919 170.513 34.3904 170.738 34.2055C170.962 34.0207 171.116 33.7639 171.173 33.4787C171.229 33.1935 171.186 32.8974 171.049 32.6407C170.913 32.3839 170.691 32.1823 170.423 32.07V28.3714C170.423 28.3714 171.282 28.4483 172.012 27.5627C172.711 26.6946 172.87 24.7134 172.865 23.5201C175.214 23.5201 177.201 25.8079 177.201 28.3516V38.0728H164.575V28.5934C164.239 29.0977 163.1 30.7844 162.022 32.3854C161.703 32.8645 160.955 33.0941 160.386 33.0941L160.384 33.0908ZM173.579 45.6887C173.578 46.6491 173.197 47.57 172.518 48.2494C171.839 48.9288 170.919 49.3112 169.958 49.3126C168.997 49.3126 168.076 48.9309 167.396 48.2514C166.717 47.5719 166.335 46.6502 166.335 45.6893C166.335 44.7283 166.717 43.8067 167.396 43.1272C168.076 42.4477 168.997 42.0659 169.958 42.0659C170.434 42.0661 170.905 42.1599 171.344 42.342C171.784 42.5242 172.183 42.7911 172.519 43.1275C172.855 43.4639 173.122 43.8632 173.304 44.3027C173.486 44.7421 173.579 45.2131 173.579 45.6887ZM177.248 62.7533H162.737V55.6572C162.737 53.098 165.021 51.0191 167.587 51.0191H172.582C175.146 51.0191 177.248 53.098 177.248 55.6572V62.7533Z" stroke="black" stroke-width="2" mask="url(#path-1-inside-1_63_470)"/>
<path fill-rule="evenodd" clip-rule="evenodd" d="M267 192.43L278.827 198.553C279.293 198.795 279.811 198.922 280.336 198.926C280.861 198.929 281.38 198.809 281.85 198.573L291.823 193.587C292.377 193.31 292.843 192.885 293.168 192.358C293.494 191.832 293.666 191.226 293.667 190.607V181.393C293.666 180.774 293.494 180.168 293.168 179.642C292.843 179.115 292.377 178.69 291.823 178.413L280.333 172.667L268.8 178.64C268.258 178.921 267.803 179.346 267.485 179.868C267.168 180.39 267 180.989 267 181.6V192.43Z" stroke="black" stroke-linecap="round" stroke-linejoin="round"/>
<path fill-rule="evenodd" clip-rule="evenodd" d="M242.133 193.36L252.16 198.553C252.627 198.795 253.144 198.922 253.669 198.926C254.195 198.929 254.714 198.809 255.183 198.573L267 192.667V181.393C267 180.774 266.827 180.168 266.502 179.642C266.176 179.115 265.71 178.69 265.157 178.413L253.667 172.667L242.133 178.64C241.591 178.921 241.136 179.346 240.819 179.868C240.501 180.39 240.333 180.989 240.333 181.6V190.4C240.333 191.011 240.501 191.61 240.819 192.132C241.136 192.654 241.591 193.079 242.133 193.36ZM253.667 172.43L265.493 178.553C265.96 178.795 266.477 178.922 267.003 178.926C267.528 178.929 268.047 178.809 268.517 178.573L280.333 172.667V161.393C280.333 160.774 280.16 160.168 279.835 159.642C279.509 159.115 279.044 158.69 278.49 158.413L268.517 153.427C268.047 153.191 267.528 153.071 267.003 153.074C266.477 153.078 265.96 153.205 265.493 153.447L255.467 158.64C254.924 158.921 254.469 159.346 254.152 159.868C253.835 160.39 253.667 160.989 253.667 161.6V172.43Z" stroke="black" stroke-linecap="round" stroke-linejoin="round"/>
<path d="M254.82 159.91L265.51 165.253C265.973 165.485 266.483 165.605 267 165.605C267.517 165.605 268.027 165.485 268.49 165.253L279.067 159.967M261.33 156.497L273.667 162.667M274.663 176.497L287 182.667M247.997 176.497L260.333 182.667M268.153 179.91L278.843 185.253C279.306 185.485 279.816 185.605 280.333 185.605C280.851 185.605 281.361 185.485 281.823 185.253L292.397 179.967M241.487 179.91L252.177 185.253C252.639 185.485 253.149 185.605 253.667 185.605C254.184 185.605 254.694 185.485 255.157 185.253L265.73 179.967M267 166V179.333M280.333 186V197.667M253.667 186V197.667" stroke="black" stroke-linecap="round" stroke-linejoin="round"/>
<path d="M228.25 156.857C228.25 155.323 228.25 154.558 228.535 153.868C228.82 153.18 229.364 152.636 230.447 151.553L231.678 150.323C232.761 149.239 233.305 148.695 233.993 148.41C234.681 148.125 235.45 148.125 236.982 148.125H242.018C243.552 148.125 244.317 148.125 245.007 148.41C245.697 148.695 246.239 149.239 247.323 150.323L248.552 151.553C249.638 152.636 250.178 153.18 250.465 153.868C250.75 154.558 250.75 155.323 250.75 156.857V165C250.75 168.536 250.75 170.303 249.651 171.401C248.552 172.5 246.786 172.5 243.25 172.5H235.75C232.214 172.5 230.447 172.5 229.349 171.401C228.25 170.303 228.25 168.536 228.25 165V156.857Z" stroke="black"/>
<path d="M233.875 148.125L228.511 144.548C228.433 144.496 228.343 144.468 228.25 144.468C228.157 144.468 228.066 144.496 227.989 144.548L223.101 147.808C223.043 147.847 222.995 147.897 222.959 147.957C222.923 148.016 222.901 148.083 222.895 148.152C222.888 148.221 222.896 148.291 222.92 148.356C222.943 148.422 222.981 148.481 223.03 148.53L227.862 153.362C227.985 153.485 228.084 153.631 228.15 153.792C228.217 153.953 228.251 154.125 228.25 154.299C228.25 155.031 228.844 155.625 229.576 155.625H249.424C250.156 155.625 250.75 155.031 250.75 154.299C250.749 154.125 250.783 153.953 250.85 153.792C250.916 153.631 251.014 153.485 251.138 153.362L255.97 148.53C256.019 148.481 256.057 148.422 256.08 148.356C256.103 148.291 256.112 148.221 256.105 148.152C256.098 148.083 256.076 148.016 256.041 147.957C256.005 147.897 255.956 147.847 255.899 147.808L251.012 144.548C250.935 144.496 250.845 144.468 250.752 144.468C250.659 144.468 250.568 144.496 250.491 144.548L245.125 148.125" stroke="black" stroke-linecap="round"/>
<path d="M46.6667 153.317C46.6664 155.072 45.9723 156.755 44.7358 158.001C41.8892 160.871 39.1271 163.863 36.1725 166.628C35.8426 166.929 35.41 167.091 34.9638 167.082C34.5177 167.073 34.0921 166.893 33.775 166.579L25.2642 158.004C24.0263 156.758 23.3315 155.073 23.3315 153.317C23.3315 151.56 24.0263 149.875 25.2642 148.63C25.8815 148.008 26.6158 147.514 27.4247 147.177C28.2336 146.84 29.1012 146.667 29.9775 146.667C30.8537 146.667 31.7213 146.84 32.5303 147.177C33.3392 147.514 34.0735 148.008 34.6908 148.63L35 148.942L35.3092 148.63C36.2358 147.693 37.4202 147.053 38.7115 146.792C40.0029 146.531 41.3428 146.659 42.5607 147.162C43.7786 147.665 44.8194 148.518 45.5506 149.614C46.2818 150.71 46.6703 151.999 46.6667 153.317Z" stroke="black" stroke-linejoin="round"/>
<path d="M52.5 193.333L63.6533 182.18C63.9816 181.852 64.1663 181.407 64.1667 180.943V165.625C64.1667 164.465 63.7057 163.352 62.8853 162.531C62.0648 161.711 60.952 161.25 59.7917 161.25C58.6313 161.25 57.5185 161.711 56.6981 162.531C55.8776 163.352 55.4167 164.465 55.4167 165.625V178.75" stroke="black" stroke-linecap="round" stroke-linejoin="round"/>
<path d="M52.5 181.667L55.0025 179.164C55.1345 179.033 55.2391 178.877 55.3103 178.706C55.3814 178.534 55.4176 178.35 55.4167 178.164C55.4147 177.902 55.3407 177.645 55.2028 177.423C55.065 177.2 54.8686 177.019 54.635 176.901L53.343 176.256C52.2483 175.709 51.0092 175.52 49.8011 175.716C48.593 175.911 47.4771 176.482 46.6113 177.347L44.0009 179.957C42.9068 181.051 42.292 182.535 42.2917 184.082V193.333M17.5 193.333L6.34671 182.18C6.01843 181.852 5.83378 181.407 5.83337 180.943V165.625C5.83337 164.465 6.29431 163.352 7.11478 162.531C7.93525 161.711 9.04805 161.25 10.2084 161.25C11.3687 161.25 12.4815 161.711 13.302 162.531C14.1224 163.352 14.5834 164.465 14.5834 165.625V178.75" stroke="black" stroke-linecap="round" stroke-linejoin="round"/>
<path d="M17.5 181.667L14.9975 179.164C14.7362 178.896 14.5879 178.538 14.5834 178.164C14.5834 177.63 14.8867 177.143 15.365 176.901L16.6571 176.256C17.7518 175.709 18.9909 175.52 20.199 175.716C21.4071 175.911 22.523 176.482 23.3888 177.347L25.9992 179.958C27.0932 181.051 27.708 182.535 27.7084 184.082V193.333" stroke="black" stroke-linecap="round" stroke-linejoin="round"/>
<path d="M266.339 128.441C266.754 128.805 267.386 128.765 267.751 128.35L273.697 121.594C274.061 121.18 274.021 120.548 273.607 120.183C273.192 119.818 272.56 119.858 272.195 120.273L266.91 126.278L260.904 120.993C260.49 120.628 259.858 120.669 259.493 121.083C259.128 121.498 259.169 122.13 259.583 122.495L266.339 128.441ZM205.671 30.634C228.5 38.6015 242.543 47.9769 251.409 62.6851C260.311 77.4512 264.087 97.7325 266.002 127.753L267.998 127.626C266.081 97.5808 262.294 76.8672 253.122 61.6525C243.915 46.3799 229.374 36.7884 206.33 28.7457L205.671 30.634Z" fill="black"/>
<path d="M92.7521 197.042C92.223 197.2 91.9223 197.757 92.0806 198.287L94.6593 206.909C94.8176 207.438 95.3748 207.739 95.9039 207.581C96.4331 207.422 96.7337 206.865 96.5755 206.336L94.2833 198.672L101.948 196.379C102.477 196.221 102.778 195.664 102.619 195.135C102.461 194.606 101.904 194.305 101.375 194.463L92.7521 197.042ZM207.846 197.422C188.992 212.56 173.599 219.501 156.428 219.226C139.188 218.95 119.988 211.404 93.5135 197.12L92.5638 198.88C119.059 213.176 138.632 220.941 156.396 221.225C174.226 221.511 190.066 214.262 209.099 198.981L207.846 197.422Z" fill="black"/>
<path d="M100.989 32.7003C101.154 32.1731 100.86 31.6123 100.333 31.4476L91.7423 28.7637C91.2151 28.599 90.6543 28.8929 90.4896 29.42C90.3249 29.9472 90.6187 30.508 91.1459 30.6727L98.7819 33.0584L96.3962 40.6944C96.2315 41.2216 96.5254 41.7824 97.0525 41.9471C97.5797 42.1118 98.1405 41.818 98.3052 41.2908L100.989 32.7003ZM36.3144 127.905C36.2593 127.244 36.2079 126.588 36.1602 125.938L34.1655 126.085C34.2137 126.742 34.2657 127.404 34.3213 128.071L36.3144 127.905ZM35.9159 122.048C35.8476 120.728 35.7961 119.431 35.7617 118.157L33.7624 118.211C33.7973 119.502 33.8495 120.816 33.9186 122.151L35.9159 122.048ZM35.7106 114.265C35.7123 112.945 35.7344 111.649 35.7773 110.377L33.7784 110.31C33.7348 111.604 33.7123 112.922 33.7106 114.263L35.7106 114.265ZM35.9782 106.496C36.0711 105.182 36.1886 103.894 36.3313 102.631L34.3439 102.407C34.198 103.699 34.078 105.015 33.9832 106.355L35.9782 106.496ZM36.8549 98.7912C37.063 97.4981 37.3004 96.2312 37.5677 94.9888L35.6125 94.568C35.3375 95.8458 35.0938 97.1471 34.8803 98.4735L36.8549 98.7912ZM38.4868 91.2379C38.8326 89.9858 39.2122 88.7585 39.6266 87.5539L37.7354 86.9033C37.3073 88.1478 36.9155 89.4146 36.559 90.7055L38.4868 91.2379ZM40.9982 83.9506C41.4958 82.7621 42.031 81.5949 42.6048 80.4469L40.8157 79.5528C40.222 80.7409 39.6682 81.9486 39.1534 83.1782L40.9982 83.9506ZM44.4418 77.0597C45.0884 75.957 45.7741 74.8706 46.5 73.7987L44.844 72.6772C44.0941 73.7845 43.3853 74.9075 42.7165 76.0482L44.4418 77.0597ZM48.7644 70.6693C49.5413 69.6617 50.3568 68.6654 51.2116 67.6786L49.7 66.369C48.821 67.3837 47.9814 68.4094 47.1806 69.448L48.7644 70.6693ZM53.8188 64.8246C54.6989 63.9092 55.615 63.0007 56.568 62.0975L55.1922 60.6459C54.2177 61.5695 53.2795 62.4999 52.3771 63.4385L53.8188 64.8246ZM59.4388 59.4893C60.3971 58.6535 61.3883 57.821 62.4131 56.9908L61.1542 55.4368C60.1114 56.2815 59.1016 57.1296 58.1242 57.9821L59.4388 59.4893ZM65.4749 54.592C66.4904 53.8216 67.5356 53.0521 68.6109 52.2827L67.447 50.6562C66.3574 51.4359 65.2972 52.2164 64.2662 52.9986L65.4749 54.592ZM71.8104 50.0529C72.8684 49.334 73.9531 48.6143 75.0649 47.893L73.9764 46.2152C72.8533 46.9438 71.7568 47.6714 70.6864 48.3986L71.8104 50.0529ZM78.3684 45.7939C79.4528 45.1186 80.561 44.4412 81.6932 43.7611L80.6634 42.0466C79.5224 42.732 78.4051 43.415 77.3112 44.0962L78.3684 45.7939ZM85.0494 41.7778C86.1577 41.1331 87.2875 40.4854 88.4392 39.8342L87.4548 38.0932C86.2964 38.7482 85.1595 39.4 84.0437 40.049L85.0494 41.7778ZM91.8623 37.9235C92.9909 37.3013 94.1391 36.6756 95.3072 36.0458L94.3581 34.2853C93.1847 34.9179 92.031 35.5467 90.8967 36.172L91.8623 37.9235ZM98.7443 34.2111C99.3245 33.9044 99.9092 33.5967 100.499 33.2879L99.5705 31.5163C98.9789 31.8262 98.392 32.1351 97.8096 32.443L98.7443 34.2111ZM100.989 32.7003C101.154 32.1731 100.86 31.6123 100.333 31.4476L91.7423 28.7637C91.2151 28.599 90.6543 28.8929 90.4896 29.42C90.3249 29.9472 90.6187 30.508 91.1459 30.6727L98.7819 33.0584L96.3962 40.6944C96.2315 41.2216 96.5254 41.7824 97.0525 41.9471C97.5797 42.1118 98.1405 41.818 98.3052 41.2908L100.989 32.7003ZM36.3144 127.905C36.2593 127.244 36.2079 126.588 36.1602 125.938L34.1655 126.085C34.2137 126.742 34.2657 127.404 34.3213 128.071L36.3144 127.905ZM35.9159 122.048C35.8476 120.728 35.7961 119.431 35.7617 118.157L33.7624 118.211C33.7973 119.502 33.8495 120.816 33.9186 122.151L35.9159 122.048ZM35.7106 114.265C35.7123 112.945 35.7344 111.649 35.7773 110.377L33.7784 110.31C33.7348 111.604 33.7123 112.922 33.7106 114.263L35.7106 114.265ZM35.9782 106.496C36.0711 105.182 36.1886 103.894 36.3313 102.631L34.3439 102.407C34.198 103.699 34.078 105.015 33.9832 106.355L35.9782 106.496ZM36.8549 98.7912C37.063 97.4981 37.3004 96.2312 37.5677 94.9888L35.6125 94.568C35.3375 95.8458 35.0938 97.1471 34.8803 98.4735L36.8549 98.7912ZM38.4868 91.2379C38.8326 89.9858 39.2122 88.7585 39.6266 87.5539L37.7354 86.9033C37.3073 88.1478 36.9155 89.4146 36.559 90.7055L38.4868 91.2379ZM40.9982 83.9506C41.4958 82.7621 42.031 81.5949 42.6048 80.4469L40.8157 79.5528C40.222 80.7409 39.6682 81.9486 39.1534 83.1782L40.9982 83.9506ZM44.4418 77.0597C45.0884 75.957 45.7741 74.8706 46.5 73.7987L44.844 72.6772C44.0941 73.7845 43.3853 74.9075 42.7165 76.0482L44.4418 77.0597ZM48.7644 70.6693C49.5413 69.6617 50.3568 68.6654 51.2116 67.6786L49.7 66.369C48.821 67.3837 47.9814 68.4094 47.1806 69.448L48.7644 70.6693ZM53.8188 64.8246C54.6989 63.9092 55.615 63.0007 56.568 62.0975L55.1922 60.6459C54.2177 61.5695 53.2795 62.4999 52.3771 63.4385L53.8188 64.8246ZM59.4388 59.4893C60.3971 58.6535 61.3883 57.821 62.4131 56.9908L61.1542 55.4368C60.1114 56.2815 59.1016 57.1296 58.1242 57.9821L59.4388 59.4893ZM65.4749 54.592C66.4904 53.8216 67.5356 53.0521 68.6109 52.2827L67.447 50.6562C66.3574 51.4359 65.2972 52.2164 64.2662 52.9986L65.4749 54.592ZM71.8104 50.0529C72.8684 49.334 73.9531 48.6143 75.0649 47.893L73.9764 46.2152C72.8533 46.9438 71.7568 47.6714 70.6864 48.3986L71.8104 50.0529ZM78.3684 45.7939C79.4528 45.1186 80.561 44.4412 81.6932 43.7611L80.6634 42.0466C79.5224 42.732 78.4051 43.415 77.3112 44.0962L78.3684 45.7939ZM85.0494 41.7778C86.1577 41.1331 87.2875 40.4854 88.4392 39.8342L87.4548 38.0932C86.2964 38.7482 85.1595 39.4 84.0437 40.049L85.0494 41.7778ZM91.8623 37.9235C92.9909 37.3013 94.1391 36.6756 95.3072 36.0458L94.3581 34.2853C93.1847 34.9179 92.031 35.5467 90.8967 36.172L91.8623 37.9235ZM98.7443 34.2111C99.3245 33.9044 99.9092 33.5967 100.499 33.2879L99.5705 31.5163C98.9789 31.8262 98.392 32.1351 97.8096 32.443L98.7443 34.2111Z" fill="black"/>
</svg>
