<svg width="35" height="35" viewBox="0 0 35 35" fill="none" xmlns="http://www.w3.org/2000/svg">
<path d="M11.375 2.91663H23.625C28.2917 2.91663 32.0833 6.70829 32.0833 11.375V23.625C32.0833 25.8682 31.1922 28.0197 29.6059 29.6059C28.0197 31.1922 25.8683 32.0833 23.625 32.0833H11.375C6.70832 32.0833 2.91666 28.2916 2.91666 23.625V11.375C2.91666 9.13167 3.8078 6.98026 5.39405 5.39401C6.98029 3.80777 9.1317 2.91663 11.375 2.91663ZM11.0833 5.83329C9.69094 5.83329 8.35558 6.38642 7.37101 7.37098C6.38645 8.35555 5.83332 9.69091 5.83332 11.0833V23.9166C5.83332 26.8187 8.18124 29.1666 11.0833 29.1666H23.9167C25.309 29.1666 26.6444 28.6135 27.629 27.6289C28.6135 26.6444 29.1667 25.309 29.1667 23.9166V11.0833C29.1667 8.18121 26.8187 5.83329 23.9167 5.83329H11.0833ZM25.1562 8.02079C25.6397 8.02079 26.1034 8.21285 26.4452 8.55471C26.7871 8.89658 26.9792 9.36024 26.9792 9.84371C26.9792 10.3272 26.7871 10.7908 26.4452 11.1327C26.1034 11.4746 25.6397 11.6666 25.1562 11.6666C24.6728 11.6666 24.2091 11.4746 23.8672 11.1327C23.5254 10.7908 23.3333 10.3272 23.3333 9.84371C23.3333 9.36024 23.5254 8.89658 23.8672 8.55471C24.2091 8.21285 24.6728 8.02079 25.1562 8.02079ZM17.5 10.2083C19.4339 10.2083 21.2885 10.9765 22.656 12.344C24.0234 13.7114 24.7917 15.5661 24.7917 17.5C24.7917 19.4338 24.0234 21.2885 22.656 22.6559C21.2885 24.0234 19.4339 24.7916 17.5 24.7916C15.5661 24.7916 13.7115 24.0234 12.344 22.6559C10.9766 21.2885 10.2083 19.4338 10.2083 17.5C10.2083 15.5661 10.9766 13.7114 12.344 12.344C13.7115 10.9765 15.5661 10.2083 17.5 10.2083ZM17.5 13.125C16.3397 13.125 15.2269 13.5859 14.4064 14.4064C13.5859 15.2268 13.125 16.3396 13.125 17.5C13.125 18.6603 13.5859 19.7731 14.4064 20.5936C15.2269 21.414 16.3397 21.875 17.5 21.875C18.6603 21.875 19.7731 21.414 20.5936 20.5936C21.4141 19.7731 21.875 18.6603 21.875 17.5C21.875 16.3396 21.4141 15.2268 20.5936 14.4064C19.7731 13.5859 18.6603 13.125 17.5 13.125Z" fill="white"/>
</svg>
