<svg width="35" height="35" viewBox="0 0 35 35" fill="none" xmlns="http://www.w3.org/2000/svg">
<path d="M32.7541 8.75004C31.6312 9.26046 30.4208 9.59587 29.1666 9.75629C30.45 8.98337 31.4416 7.75837 31.9083 6.28546C30.6979 7.01462 29.3562 7.52504 27.9416 7.81671C26.7896 6.56254 25.1708 5.83337 23.3333 5.83337C19.9062 5.83337 17.1062 8.63337 17.1062 12.0896C17.1062 12.5855 17.1646 13.0667 17.2667 13.5188C12.075 13.2563 7.45207 10.7625 4.37499 6.98546C3.8354 7.90421 3.52915 8.98337 3.52915 10.1209C3.52915 12.2938 4.6229 14.2188 6.31457 15.3125C5.27915 15.3125 4.31665 15.0209 3.47082 14.5834V14.6271C3.47082 17.6605 5.62915 20.198 8.48749 20.7667C7.56996 21.0189 6.60629 21.0539 5.6729 20.8688C6.06899 22.112 6.84473 23.1998 7.89105 23.9793C8.93738 24.7588 10.2017 25.1908 11.5062 25.2146C9.29492 26.9654 6.55375 27.9117 3.73332 27.898C3.23749 27.898 2.74165 27.8688 2.24582 27.8105C5.01665 29.5896 8.31248 30.625 11.8417 30.625C23.3333 30.625 29.6479 21.0875 29.6479 12.8188C29.6479 12.5417 29.6479 12.2792 29.6333 12.0021C30.8583 11.1271 31.9083 10.0188 32.7541 8.75004Z" fill="white"/>
</svg>
