<svg width="35" height="35" viewBox="0 0 35 35" fill="none" xmlns="http://www.w3.org/2000/svg">
<path d="M14.5833 21.875L22.1521 17.5L14.5833 13.125V21.875ZM31.4417 10.4562C31.6313 11.1416 31.7625 12.0604 31.85 13.227C31.9521 14.3937 31.9958 15.4 31.9958 16.275L32.0833 17.5C32.0833 20.6937 31.85 23.0416 31.4417 24.5437C31.0771 25.8562 30.2313 26.702 28.9188 27.0666C28.2333 27.2562 26.9792 27.3875 25.0542 27.475C23.1583 27.577 21.4229 27.6208 19.8188 27.6208L17.5 27.7083C11.3896 27.7083 7.58334 27.475 6.08126 27.0666C4.76876 26.702 3.92292 25.8562 3.55834 24.5437C3.36876 23.8583 3.23751 22.9395 3.15001 21.7729C3.04792 20.6062 3.00417 19.6 3.00417 18.725L2.91667 17.5C2.91667 14.3062 3.15001 11.9583 3.55834 10.4562C3.92292 9.14371 4.76876 8.29788 6.08126 7.93329C6.76667 7.74371 8.02084 7.61246 9.94584 7.52496C11.8417 7.42288 13.5771 7.37913 15.1813 7.37913L17.5 7.29163C23.6104 7.29163 27.4167 7.52496 28.9188 7.93329C30.2313 8.29788 31.0771 9.14371 31.4417 10.4562Z" fill="white"/>
</svg>
